<svg xmlns="http://www.w3.org/2000/svg" fill="none" viewBox="0 0 112 32" height="32" width="112">
<g clip-path="url(#clip0_3510_3482)" id="Primary Logo">
<path fill="black" d="M33.8293 31.9877C27.802 31.9877 22.8975 27.0831 22.8975 21.0558C22.8975 15.0286 27.802 10.124 33.8293 10.124C39.8566 10.124 44.7611 15.0286 44.7611 21.0558C44.7611 27.0831 39.8566 31.9877 33.8293 31.9877ZM33.8293 14.2604C30.0829 14.2604 27.0338 17.3095 27.0338 21.0558C27.0338 24.8022 30.0829 27.8513 33.8293 27.8513C37.5757 27.8513 40.6248 24.8022 40.6248 21.0558C40.6248 17.3095 37.5757 14.2604 33.8293 14.2604Z" id="Vector"></path>
<path fill="black" d="M84.9436 31.9877C78.9163 31.9877 74.0117 27.0831 74.0117 21.0558C74.0117 15.0286 78.9163 10.124 84.9436 10.124C90.9708 10.124 95.8754 15.0286 95.8754 21.0558C95.8754 27.0831 90.9708 31.9877 84.9436 31.9877ZM84.9436 14.2604C81.1972 14.2604 78.1481 17.3095 78.1481 21.0558C78.1481 24.8022 81.1972 27.8513 84.9436 27.8513C88.6899 27.8513 91.739 24.8022 91.739 21.0558C91.739 17.3095 88.6899 14.2604 84.9436 14.2604Z" id="Vector_2"></path>
<path fill="black" d="M111.096 31.966H107.764C103.359 31.966 99.7871 28.394 99.7871 23.9887V11.1084C102.071 11.1084 103.923 12.9609 103.923 15.2448V23.9887C103.923 26.1101 105.643 27.8296 107.764 27.8296H111.096V31.966Z" id="Vector_3"></path>
<path fill="black" d="M111.096 11.1069H106.417C102.833 11.1069 99.917 8.19079 99.917 4.60692V0H104.053V4.60692C104.053 5.90988 105.114 6.97056 106.417 6.97056H111.096V11.1069Z" id="Vector_4"></path>
<path fill="black" d="M59.4798 31.9882C53.4614 31.9291 48.6558 26.9359 48.6558 20.9175V14.6169C50.9396 14.6169 52.7921 16.4694 52.7921 18.7533V20.9426C52.7921 24.6639 55.7364 27.7809 59.4561 27.8503C63.2631 27.9227 66.3831 24.847 66.3831 21.0564C66.3831 17.2657 63.334 14.2609 59.5876 14.2609L55.1602 14.2727C51.5704 14.2727 48.6543 11.3566 48.6543 7.77272V0H52.7907V7.77272C52.7907 9.07567 53.8514 10.1364 55.1543 10.1364L59.5817 10.1245C65.6149 10.1245 70.5194 15.0291 70.5194 21.0564C70.5194 27.0836 65.5573 32.0473 59.4798 31.9882Z" id="Vector_5"></path>
<path fill="black" d="M10.9318 31.9994C4.90456 31.9994 0 27.0948 0 21.0676C0 15.0403 4.90456 10.1357 10.9318 10.1357C14.4404 10.1357 17.7598 11.8376 19.8103 14.6887L16.4524 17.104C15.1761 15.3298 13.1123 14.2721 10.9304 14.2721C7.18399 14.2721 4.13489 17.3212 4.13489 21.0676C4.13489 24.8139 7.18399 27.863 10.9304 27.863C13.1108 27.863 15.1761 26.8038 16.4524 25.0311L19.8103 27.4464C17.7583 30.2976 14.4404 31.9994 10.9318 31.9994Z" id="Vector_6"></path>
</g>
<defs>
<clipPath id="clip0_3510_3482">
<rect fill="white" height="32" width="111.041"></rect>
</clipPath>
</defs>
</svg>
